HIERARCHY
ROOT Hips
{
	OFFSET 0.00000 0.00000 0.00000
	CHANNELS 6 Xposition Yposition Zposition Zrotation Yrotation Xrotation 
	JOINT LHipJoint
	{
		OFFSET 0 0 0
		CHANNELS 3 Zrotation Yrotation Xrotation
		JOINT LeftUpLeg
		{
			OFFSET 1.62964 -1.40469 0.78906
			CHANNELS 3 Zrotation Yrotation Xrotation
			JOINT LeftLeg
			{
				OFFSET 2.29640 -6.30932 0.00000
				CHANNELS 3 Zrotation Yrotation Xrotation
				JOINT LeftFoot
				{
					OFFSET 2.29451 -6.30412 0.00000
					CHANNELS 3 Zrotation Yrotation Xrotation
					JOINT LeftToeBase
					{
						OFFSET 0.03611 -0.09921 1.56387
						CHANNELS 3 Zrotation Yrotation Xrotation
						End Site
						{
							OFFSET 0.00000 -0.00000 0.80291
						}
					}
				}
			}
		}
	}
	JOINT RHipJoint
	{
		OFFSET 0 0 0
		CHANNELS 3 Zrotation Yrotation Xrotation
		JOINT RightUpLeg
		{
			OFFSET -1.73712 -1.40469 0.78906
			CHANNELS 3 Zrotation Yrotation Xrotation
			JOINT RightLeg
			{
				OFFSET -2.28137 -6.26801 0.00000
				CHANNELS 3 Zrotation Yrotation Xrotation
				JOINT RightFoot
				{
					OFFSET -2.28681 -6.28298 0.00000
					CHANNELS 3 Zrotation Yrotation Xrotation
					JOINT RightToeBase
					{
						OFFSET -0.15927 -0.43759 1.61103
						CHANNELS 3 Zrotation Yrotation Xrotation
						End Site
						{
							OFFSET -0.00000 -0.00000 0.84630
						}
					}
				}
			}
		}
	}
	JOINT LowerBack
	{
		OFFSET 0 0 0
		CHANNELS 3 Zrotation Yrotation Xrotation
		JOINT Spine
		{
			OFFSET -0.04227 2.04338 -0.00225
			CHANNELS 3 Zrotation Yrotation Xrotation
			JOINT Spine1
			{
				OFFSET -0.02148 2.04482 -0.04273
				CHANNELS 3 Zrotation Yrotation Xrotation
				JOINT Neck
				{
					OFFSET 0 0 0
					CHANNELS 3 Zrotation Yrotation Xrotation
					JOINT Neck1
					{
						OFFSET 0.09180 1.44629 0.19359
						CHANNELS 3 Zrotation Yrotation Xrotation
						JOINT Head
						{
							OFFSET 0.00887 1.40645 0.14750
							CHANNELS 3 Zrotation Yrotation Xrotation
							End Site
							{
								OFFSET -0.00669 1.50671 0.03707
							}
						}
					}
				}
				JOINT LeftShoulder
				{
					OFFSET 0 0 0
					CHANNELS 3 Zrotation Yrotation Xrotation
					JOINT LeftArm
					{
						OFFSET 2.17674 1.86763 -0.06520
						CHANNELS 3 Zrotation Yrotation Xrotation
						JOINT LeftForeArm
						{
							OFFSET 4.65776 -0.00000 0.00000
							CHANNELS 3 Zrotation Yrotation Xrotation
							JOINT LeftHand
							{
								OFFSET 3.55539 -0.00000 0.00000
								CHANNELS 3 Zrotation Yrotation Xrotation
								JOINT LeftFingerBase
								{
									OFFSET 0 0 0
									CHANNELS 3 Zrotation Yrotation Xrotation
									JOINT LeftHandIndex1
									{
										OFFSET 0.70726 -0.00000 0.00000
										CHANNELS 3 Zrotation Yrotation Xrotation
										End Site
										{
											OFFSET 0.57022 -0.00000 0.00000
										}
									}
								}
								JOINT LThumb
								{
									OFFSET 0 0 0
									CHANNELS 3 Zrotation Yrotation Xrotation
									End Site
									{
										OFFSET 0.57892 -0.00000 0.57892
									}
								}
							}
						}
					}
				}
				JOINT RightShoulder
				{
					OFFSET 0 0 0
					CHANNELS 3 Zrotation Yrotation Xrotation
					JOINT RightArm
					{
						OFFSET -2.80694 1.55459 -0.32496
						CHANNELS 3 Zrotation Yrotation Xrotation
						JOINT RightForeArm
						{
							OFFSET -4.71925 -0.00000 -0.00000
							CHANNELS 3 Zrotation Yrotation Xrotation
							JOINT RightHand
							{
								OFFSET -3.56990 -0.00000 0.00000
								CHANNELS 3 Zrotation Yrotation Xrotation
								JOINT RightFingerBase
								{
									OFFSET 0 0 0
									CHANNELS 3 Zrotation Yrotation Xrotation
									JOINT RightHandIndex1
									{
										OFFSET -0.50776 -0.00000 0.00000
										CHANNELS 3 Zrotation Yrotation Xrotation
										End Site
										{
											OFFSET -0.40937 -0.00000 0.00000
										}
									}
								}
								JOINT RThumb
								{
									OFFSET 0 0 0
									CHANNELS 3 Zrotation Yrotation Xrotation
									End Site
									{
										OFFSET -0.41562 -0.00000 0.41562
									}
								}
							}
						}
					}
				}
			}
		}
	}
}
MOTION
Frames: 5
Frame Time: .0083333
9.0702 15.5467 10.9581 -181.9260 5.3936 -134.8540 0.0000 0.0000 0.0000 -2.8907 -23.9612 -68.5036 6.0183 14.4460 45.0550 1.0545 -5.7198 -18.3445 4.8039 -13.1594 -39.9683 0.0000 0.0000 0.0000 1.6929 24.1907 -67.6629 -5.7993 -14.2310 44.1710 -2.9298 -6.1126 -34.8986 -3.3585 11.2539 -33.1411 -4.2517 -2.0845 -13.7943 -0.1557 -1.8862 -1.8240 1.8941 -0.9176 5.9443 14.7225 -8.1622 30.7870 -9.6000 -5.9880 -43.0257 -7.8162 -2.3847 -27.6630 -0.0000 -0.0000 0.0000 -49.7703 33.8753 52.1545 34.4015 -44.3800 -14.3931 -0.0000 0.0000 -10.9144 30.4091 -18.6769 -10.6444 -7.1250 0.0000 -0.0000 1.4425 8.5825 -1.2115 -0.0000 -0.0000 0.0000 76.6373 -37.3484 27.4603 -40.6974 48.4777 -18.9597 0.0000 -0.0000 -9.4203 -10.8186 -44.1772 7.5855 7.1250 -0.0000 -0.0000 41.7349 -70.6640 -27.0288
9.0781 15.4264 11.0063 -181.9770 5.4794 -134.3790 0.0000 0.0000 0.0000 -2.6513 -23.6515 -70.5769 6.5879 14.9748 47.2979 1.1039 -6.4756 -18.7589 4.6664 -12.9980 -39.3609 0.0000 0.0000 0.0000 1.0647 24.3162 -69.7059 -6.3344 -14.7447 46.3094 -3.0163 -6.4014 -35.4987 -3.3847 11.2932 -33.2752 -4.4026 -2.1166 -13.2335 -0.0762 -1.9485 -1.9061 2.0661 -0.9470 5.5591 14.3667 -8.2279 31.0740 -8.7359 -5.7212 -43.6575 -7.4111 -2.3418 -28.3907 0.0000 -0.0000 0.0000 -49.3936 34.7871 52.5676 35.3481 -45.0591 -15.0592 -0.0000 0.0000 -11.1510 30.3581 -18.8142 -10.6967 -7.1250 0.0000 -0.0000 1.3916 8.4386 -1.1727 0.0000 -0.0000 0.0000 76.6128 -37.7792 27.4725 -41.7125 49.0524 -19.7231 0.0000 -0.0000 -9.8998 -10.9924 -43.6811 7.6407 7.1250 -0.0000 -0.0000 40.5278 -70.3730 -25.9184
9.0777 15.2891 11.0167 -181.7750 5.8720 -134.4680 0.0000 0.0000 0.0000 -2.6851 -23.0914 -71.7189 7.1352 15.4447 49.3840 1.1716 -7.0444 -19.3328 4.4889 -12.7840 -38.5653 0.0000 0.0000 0.0000 0.9283 24.6601 -70.8046 -6.8234 -15.1813 48.2031 -3.1556 -6.1454 -36.1031 -3.3343 11.2175 -33.0168 -4.3616 -1.9510 -12.6447 -0.1064 -1.7933 -1.6083 2.0472 -0.8905 5.5340 14.3225 -8.2142 30.9813 -8.7412 -5.6826 -43.8568 -7.4870 -2.3147 -28.6288 -0.0000 -0.0000 0.0000 -49.2566 35.5288 52.4060 36.2580 -45.6898 -15.7068 -0.0000 0.0000 -11.1929 30.4697 -19.4701 -11.0949 -7.1250 0.0000 -0.0000 1.3749 7.6827 -1.1791 -0.0000 -0.0000 0.0000 76.8274 -37.7915 27.2277 -42.6472 49.5624 -20.4319 0.0000 -0.0000 -10.2780 -10.6795 -43.7684 7.4323 7.1250 -0.0000 -0.0000 41.0230 -70.3302 -26.2325
9.0759 15.1481 11.0215 -181.6450 6.2108 -134.8280 0.0000 0.0000 0.0000 -2.8148 -22.6672 -72.5506 7.7107 15.9023 51.5140 1.2432 -7.6471 -19.9296 4.1670 -12.3794 -37.0876 0.0000 0.0000 0.0000 0.7035 25.0715 -71.5289 -7.3382 -15.6102 50.1419 -3.3414 -5.5781 -36.7931 -3.0507 10.7766 -31.5302 -4.3482 -1.8144 -11.8514 -0.1113 -1.6843 -1.3069 2.0652 -0.8556 5.4027 13.9423 -8.2598 31.3280 -7.7493 -5.2868 -44.5230 -7.0339 -2.2381 -29.4693 -0.0000 0.0000 0.0000 -49.2075 36.4705 52.2020 37.2794 -46.3728 -16.4419 -0.0000 0.0000 -11.0099 30.5219 -19.8694 -11.3307 -7.1250 0.0000 -0.0000 1.3533 7.2259 -1.1727 -0.0000 0.0000 0.0000 76.9736 -37.9572 26.9902 -43.8177 50.1759 -21.3268 0.0000 -0.0000 -10.7091 -10.3673 -43.4969 7.1771 7.1250 -0.0000 -0.0000 40.7874 -70.0335 -25.8113
9.0884 14.9959 11.1002 -181.8860 6.1849 -133.3280 0.0000 0.0000 0.0000 -2.0387 -22.5660 -76.3488 8.5259 16.4928 54.4356 1.3044 -8.1282 -20.4304 4.3195 -12.5738 -37.7934 0.0000 0.0000 0.0000 -0.9408 25.2120 -75.3208 -8.1107 -16.2001 52.9605 -3.5047 -5.3513 -37.5116 -2.7642 10.3033 -29.9645 -4.6788 -2.0573 -12.1484 -0.0038 -1.9281 -1.7293 2.3239 -0.9555 5.1548 13.6520 -8.2361 31.6506 -7.4541 -5.1403 -44.8613 -6.9400 -2.1816 -30.0995 0.0000 -0.0000 0.0000 -49.1291 37.4093 52.0787 38.2472 -46.9965 -17.1461 -0.0000 0.0000 -10.7752 30.5713 -20.0265 -11.4364 -7.1250 0.0000 -0.0000 1.3627 7.0403 -1.1857 0.0000 -0.0000 0.0000 77.0119 -38.0686 26.9834 -44.8863 50.7127 -22.1507 0.0000 -0.0000 -11.0771 -10.2388 -42.9741 7.0194 7.1250 -0.0000 -0.0000 39.8909 -69.6154 -24.8305
